# Blender v2.80 (sub 75) OBJ File: 'CarPark.blend'
# www.blender.org
mtllib WindowFram1.mtl
o Cube
v -1.050123 -1.050123 0.291475
v -1.050123 1.050123 0.291475
v -1.050123 -1.050123 -0.291469
v -1.050123 1.050123 -0.291469
v 1.050123 -1.050123 0.291475
v 1.050123 1.050123 0.291475
v 1.050123 -1.050123 -0.291469
v 1.050123 1.050123 -0.291469
v 0.875103 -1.050123 -0.291469
v -0.875103 -1.050123 -0.291469
v -0.875103 1.050123 -0.291469
v 0.875103 1.050123 -0.291469
v -0.875103 -1.050123 0.291475
v 0.875103 -1.050123 0.291475
v 0.875103 1.050123 0.291475
v -0.875103 1.050123 0.291475
v -1.050123 -0.875103 0.291475
v -1.050123 0.875103 0.291475
v -1.050123 0.875103 -0.291469
v -1.050123 -0.875103 -0.291469
v 1.050123 0.875103 -0.291469
v 1.050123 -0.875103 -0.291469
v 1.050123 0.875103 0.291475
v 1.050123 -0.875103 0.291475
v 0.875103 0.875103 0.291475
v 0.875103 -0.875103 0.291475
v -0.875103 0.875104 0.291475
v -0.875103 -0.875102 0.291475
v -0.875103 0.875103 -0.291469
v -0.875103 -0.875103 -0.291469
v 0.875103 0.875103 -0.291469
v 0.875103 -0.875103 -0.291469
v -1.050123 -1.050123 0.000003
v -1.050123 1.050123 0.000003
v 1.050123 -1.050123 0.000003
v 1.050123 1.050123 0.000003
v 0.875103 1.050123 0.000003
v -0.875103 1.050123 0.000003
v -0.875103 -1.050123 0.000003
v 0.875103 -1.050123 0.000003
v 1.050123 -0.875103 0.000003
v 1.050123 0.875103 0.000003
v -1.050123 -0.875103 0.000003
v -1.050123 0.875103 0.000003
v -0.875103 0.875103 -0.078470
v -0.875103 -0.875103 -0.078470
v 0.875103 -0.875103 -0.078470
v 0.875103 0.875103 -0.078470
v 0.875103 0.875103 0.078477
v 0.875103 -0.875103 0.078477
v -0.875103 -0.875103 0.078477
v -0.875103 0.875103 0.078477
v 0.816571 0.825140 0.000003
v -0.816571 0.825140 0.000003
v 0.816571 -0.825140 0.000003
v -0.816571 -0.825140 0.000003
v -0.816571 0.825140 -0.078470
v -0.816571 -0.825140 -0.078470
v 0.816571 -0.825140 -0.078470
v 0.816571 0.825140 -0.078470
v 0.816571 0.825140 0.078477
v 0.816571 -0.825140 0.078477
v -0.816571 -0.825139 0.078477
v -0.816571 0.825140 0.078477
vt 0.541667 0.125000
vt 0.625000 0.125000
vt 0.625000 0.250000
vt 0.541667 0.250000
vt 0.541667 0.416667
vt 0.625000 0.416667
vt 0.625000 0.500000
vt 0.541667 0.500000
vt 0.541667 0.625000
vt 0.625000 0.625000
vt 0.625000 0.750000
vt 0.541667 0.750000
vt 0.541667 0.916667
vt 0.625000 0.916667
vt 0.625000 1.000000
vt 0.541667 1.000000
vt 0.291667 0.625000
vt 0.375000 0.625000
vt 0.375000 0.750000
vt 0.291667 0.750000
vt 0.791667 0.625000
vt 0.875000 0.625000
vt 0.875000 0.750000
vt 0.791667 0.750000
vt 0.708333 0.625000
vt 0.708333 0.750000
vt 0.125000 0.625000
vt 0.208333 0.625000
vt 0.208333 0.750000
vt 0.125000 0.750000
vt 0.625000 0.833333
vt 0.541667 0.833333
vt 0.625000 0.333333
vt 0.541667 0.333333
vt 0.375000 0.333333
vt 0.458333 0.333333
vt 0.458333 0.416667
vt 0.375000 0.416667
vt 0.458333 0.333333
vt 0.541667 0.333333
vt 0.541667 0.333333
vt 0.458333 0.333333
vt 0.375000 0.250000
vt 0.458333 0.250000
vt 0.375000 0.833333
vt 0.458333 0.833333
vt 0.458333 0.916667
vt 0.375000 0.916667
vt 0.541667 0.416667
vt 0.541667 0.416667
vt 0.458333 0.750000
vt 0.458333 1.000000
vt 0.375000 1.000000
vt 0.458333 0.625000
vt 0.458333 0.500000
vt 0.375000 0.500000
vt 0.375000 0.125000
vt 0.458333 0.125000
vt 0.458333 0.416667
vt 0.458333 0.416667
vt 0.458333 0.416667
vt 0.458333 0.333333
vt 0.541667 0.333333
vt 0.541667 0.416667
vt 0.541667 0.333333
vt 0.541667 0.416667
vt 0.541667 0.416667
vt 0.541667 0.333333
vt 0.458333 0.416667
vt 0.458333 0.333333
vt 0.458333 0.333333
vt 0.458333 0.416667
vt 0.458333 0.000000
vt 0.541667 0.000000
vt 0.375000 0.000000
vt 0.208333 0.500000
vt 0.291667 0.500000
vt 0.125000 0.500000
vt 0.708333 0.500000
vt 0.791667 0.500000
vt 0.875000 0.500000
vt 0.625000 0.000000
vt 0.458333 0.333333
vt 0.458333 0.416667
vt 0.541667 0.416667
vt 0.541667 0.333333
vn -1.0000 0.0000 0.0000
vn 0.0000 0.0000 -1.0000
vn 1.0000 0.0000 0.0000
vn -0.0000 0.0000 1.0000
vn 0.0000 -1.0000 0.0000
vn 0.0000 1.0000 0.0000
usemtl None
s off
f 44/1/1 34/2/1 4/3/1 19/4/1
f 31/5/2 12/6/2 8/7/2 21/8/2
f 42/9/3 36/10/3 6/11/3 23/12/3
f 27/13/4 16/14/4 2/15/4 18/16/4
f 40/17/5 35/18/5 5/19/5 14/20/5
f 38/21/6 34/22/6 2/23/6 16/24/6
f 36/10/6 37/25/6 15/26/6 6/11/6
f 37/25/6 38/21/6 16/24/6 15/26/6
f 33/27/5 39/28/5 13/29/5 1/30/5
f 39/28/5 40/17/5 14/20/5 13/29/5
f 23/12/4 6/11/4 15/31/4 25/32/4
f 25/32/4 15/31/4 16/14/4 27/13/4
f 19/4/2 4/3/2 11/33/2 29/34/2
f 29/34/2 11/33/2 12/6/2 31/5/2
f 10/35/2 30/36/2 32/37/2 9/38/2
f 51/39/3 52/40/3 27/41/3 28/42/3
f 3/43/2 20/44/2 30/36/2 10/35/2
f 20/44/2 19/4/2 29/34/2 30/36/2
f 14/45/4 26/46/4 28/47/4 13/48/4
f 52/40/5 49/49/5 25/50/5 27/41/5
f 5/19/4 24/51/4 26/46/4 14/45/4
f 24/51/4 23/12/4 25/32/4 26/46/4
f 13/48/4 28/47/4 17/52/4 1/53/4
f 28/47/4 27/13/4 18/16/4 17/52/4
f 35/18/3 41/54/3 24/51/3 5/19/3
f 41/54/3 42/9/3 23/12/3 24/51/3
f 9/38/2 32/37/2 22/55/2 7/56/2
f 32/37/2 31/5/2 21/8/2 22/55/2
f 33/57/1 43/58/1 20/44/1 3/43/1
f 43/58/1 44/1/1 19/4/1 20/44/1
f 49/49/1 50/59/1 26/60/1 25/50/1
f 50/59/6 51/39/6 28/42/6 26/60/6
f 51/39/4 50/59/4 62/61/4 63/62/4
f 49/49/4 52/40/4 64/63/4 61/64/4
f 45/65/2 48/66/2 60/67/2 57/68/2
f 47/69/2 46/70/2 58/71/2 59/72/2
f 17/73/1 18/74/1 44/1/1 43/58/1
f 1/75/1 17/73/1 43/58/1 33/57/1
f 22/55/3 21/8/3 42/9/3 41/54/3
f 7/56/3 22/55/3 41/54/3 35/18/3
f 10/76/5 9/77/5 40/17/5 39/28/5
f 3/78/5 10/76/5 39/28/5 33/27/5
f 12/79/6 11/80/6 38/21/6 37/25/6
f 8/7/6 12/79/6 37/25/6 36/10/6
f 11/80/6 4/81/6 34/22/6 38/21/6
f 9/77/5 7/56/5 35/18/5 40/17/5
f 21/8/3 8/7/3 36/10/3 42/9/3
f 18/74/1 2/82/1 34/2/1 44/1/1
f 30/36/3 29/34/3 45/65/3 46/70/3
f 29/34/5 31/5/5 48/66/5 45/65/5
f 31/5/1 32/37/1 47/69/1 48/66/1
f 32/37/6 30/36/6 46/70/6 47/69/6
f 50/59/4 49/49/4 61/64/4 62/61/4
f 46/70/2 45/65/2 57/68/2 58/71/2
f 52/40/4 51/39/4 63/62/4 64/63/4
f 48/66/2 47/69/2 59/72/2 60/67/2
f 59/72/6 58/71/6 56/83/6 55/84/6
f 60/67/1 59/72/1 55/84/1 53/85/1
f 57/68/5 60/67/5 53/85/5 54/86/5
f 58/71/3 57/68/3 54/86/3 56/83/3
f 55/84/6 56/83/6 63/62/6 62/61/6
f 53/85/1 55/84/1 62/61/1 61/64/1
f 54/86/5 53/85/5 61/64/5 64/63/5
f 56/83/3 54/86/3 64/63/3 63/62/3
